<?xml version="1.0" encoding="UTF-8"?>
<!-- Generated by Pixelmator Pro 3.2.3 -->
<svg width="798" height="802" viewBox="0 0 798 802" xmlns="http://www.w3.org/2000/svg" xmlns:xlink="http://www.w3.org/1999/xlink">
    <g id="Group">
        <g id="g1">
            <path id="Path" fill="#f8b894" stroke="none" d="M 416.299988 242.75 C 523.5 264.609985 627.5 297.089966 697.340027 326.130005 C 653.409973 300.219971 600.159973 262.079956 546.929993 214 C 520.719971 190.320007 494.719971 161.75 475.359985 133.640015 C 426.460022 122.059998 375.48999 112.599976 326.029999 107.080017 C 340.149994 145.660034 370.649994 192.27002 416.309998 242.75 Z"/>
            <path id="path1" fill="#f8b894" stroke="none" d="M 103.070007 225.420044 C 142.380005 217.459961 188.880005 215.709961 238.839996 218.47998 C 213.980011 177.049988 197.829987 136.73999 197.480011 103.150024 C 168.700012 105.210022 141.98999 109.690002 118.350006 117.099976 C 94.449997 146.849976 91.339996 184.089966 103.059998 225.420044 Z"/>
            <path id="path2" fill="#f8b894" stroke="none" d="M 758.450012 241.329956 C 745.119995 227.640015 705.469971 207.559998 650.940002 186.880005 C 693.940002 218.25 739.75 242.51001 758.450012 241.329956 Z"/>
            <path id="path3" fill="#f8b894" stroke="none" d="M 788.299988 496 L 789.919983 492.049988 C 780.710022 470.830017 690.390015 423.349976 572.5 382.219971 C 672.940002 456.429993 770.940002 506.01001 788.299988 496 Z"/>
            <path id="path4" fill="#f8b894" stroke="none" d="M 311.899994 317.540039 C 255.320007 309.920044 195.779999 306.929993 144.040009 311.849976 C 171.339996 354.890015 208.429993 399.570007 250.179993 442.950012 C 286.809998 446.059998 327.450012 452.390015 371.369995 462.190002 C 423.150024 473.75 475.219971 489.690002 522.619995 507.030029 C 459.830017 461.289978 393.159973 405.320007 337.040009 345.450012 C 328.549988 336.390015 320.130005 327.059998 311.890015 317.530029 Z"/>
            <path id="path5" fill="#f8b894" stroke="none" d="M 102.789993 453.409973 C 74.25 415.530029 51.800003 377.530029 39.110001 341.320007 C 23.729996 350.959961 12.220001 363.059998 5.820007 377.98999 C 4.639999 380.75 3.720001 383.47998 2.979996 386.169983 L 2.979996 386.140015 C 2.979996 386.140015 1.089996 391.640015 1.089996 391.640015 C 4.529999 428.590027 21.009995 467.679993 45.449997 506.469971 C 49.589996 482.48999 69.649994 464.469971 102.789993 453.409973 Z"/>
        </g>
        <path id="path6" fill="#f8b894" stroke="none" d="M 389.900024 801.47998 C 389.789978 801.380005 376.169983 788.830017 354.089996 770.349976 C 309.170013 732.72998 229.220001 670.5 156.589996 638.299988 C 209.76001 689.369995 267.149994 733.530029 312.540009 763 L 312.540009 763 C 312.589996 763.030029 312.640015 763.070007 312.700012 763.099976 C 315.450012 764.880005 318.140015 766.599976 320.790009 768.27002 C 321.799988 768.900024 322.779999 769.51001 323.769989 770.119995 C 325.429993 771.150024 327.079987 772.179993 328.700012 773.169983 C 329.869995 773.890015 331.029999 774.580017 332.179993 775.27002 C 333.570007 776.099976 334.940002 776.919983 336.299988 777.719971 C 337.5 778.419983 338.679993 779.119995 339.850006 779.789978 C 341.950012 781 344.040009 782.200012 346.049988 783.320007 C 348.540009 784.700012 350.950012 786.02002 353.299988 787.25 C 357.980011 789.719971 362.369995 791.900024 366.410004 793.76001 C 368.429993 794.690002 370.369995 795.539978 372.219971 796.309998 C 377.710022 798.590027 382.400024 800.150024 386.190002 800.929993 L 389.809998 801.469971 C 389.809998 801.469971 389.809998 801.469971 389.809998 801.469971 L 389.669983 801.390015 L 389.669983 801.390015 C 389.669983 801.390015 389.880005 801.47998 389.880005 801.47998 C 389.880005 801.47998 389.880005 801.47998 389.890015 801.47998 Z"/>
    </g>
    <g id="g2">
        <path id="path7" fill="#ef5a22" stroke="none" d="M 762.900024 249.299988 C 761.710022 246.910034 760.5 244.540039 759.25 242.179993 C 759 241.900024 758.719971 241.619995 758.440002 241.329956 C 739.73999 242.51001 693.919983 218.25 650.929993 186.880005 C 604.940002 153.320007 562.179993 111.630005 559.330017 84.280029 C 558.690002 78.150024 560.400024 75.619995 561.679993 74.359985 C 573.72998 62.390015 627.130005 96.320007 656.599976 119.179993 C 677.669983 135.52002 693.289978 151.440002 703.710022 163.089966 C 702.159973 152.390015 697.919983 144.320007 694.070007 137.589966 C 646.710022 54.869995 464.48999 -25.48999 445.169983 44.789978 C 438.830017 67.849976 452.450012 100.429993 475.349976 133.650024 C 494.710022 161.76001 520.710022 190.329956 546.919983 214.01001 C 600.159973 262.089966 653.400024 300.22998 697.330017 326.140015 C 722.969971 341.26001 745.450012 352.219971 762.880005 358.540039 C 770.48999 361.299988 777.119995 363.160034 782.659973 364.109985 C 789.549988 365.299988 794.719971 365.070007 797.869995 363.339966 C 792.719971 324.01001 780.909973 285.48999 762.890015 249.320007 Z"/>
        <path id="path8" fill="#ef5a22" stroke="none" d="M 788.299988 496 C 770.940002 506.01001 672.940002 456.429993 572.5 382.219971 C 540.580017 358.630005 508.409973 332.570007 478.51001 305.130005 C 455.369995 283.890015 434.619995 263.02002 416.289978 242.75 C 370.630005 192.280029 340.130005 145.670044 326.01001 107.080017 C 303.269989 44.929993 323 3.599976 390.289978 0.52002 C 357.269989 1.410034 330.380005 6.75 308.779999 11.039978 C 282.220001 17.660034 277.790009 19.22998 246.019989 31.48999 C 243.649994 32.5 241.190002 33.539978 238.730011 34.589966 C 230.480011 38.570007 217.450012 45.960022 208.359985 60.549988 C 200.700012 72.849976 197.320007 87.23999 197.48999 103.140015 C 197.839996 136.72998 213.98999 177.040039 238.850006 218.469971 C 258.809998 251.72998 284.369995 285.719971 311.899994 317.530029 C 320.140015 327.049988 328.549988 336.390015 337.049988 345.450012 C 393.169983 405.309998 459.830017 461.280029 522.630005 507.030029 C 613.690002 573.359985 696.580017 618.169983 727.369995 622.099976 C 734.320007 613.049988 740.900024 603.650024 747.049988 593.859985 C 766.960022 562.159973 781.130005 528.73999 789.929993 494.619995 C 789.51001 495.159973 788.960022 495.609985 788.309998 495.97998 Z"/>
        <path id="path9" fill="#ef5a22" stroke="none" d="M 635.659973 724.22998 C 630.72998 724.47998 623.700012 722.900024 614.919983 719.700012 C 547.75 695.210022 377.419983 575.150024 250.179993 442.950012 C 208.429993 399.570007 171.329987 354.890015 144.040009 311.849976 C 125.059998 281.910034 110.820007 252.780029 103.070007 225.420044 L 103.070007 225.420044 C 91.360001 184.089966 94.460007 146.839966 118.359985 117.099976 C 118.190002 117.150024 118.019989 117.209961 117.850006 117.26001 C 88.610001 148.219971 82.490005 157.140015 61.460007 187.809998 C 55.139999 198.559998 47.789993 212.25 41.339996 224.77002 C 38.809998 229.880005 36.380005 234.910034 34.139999 239.660034 C 32.610001 244.089966 31.350006 248.589966 30.369995 253.170044 C 24.520004 280.429993 28.210007 310.209961 39.100006 341.309998 C 51.789993 377.530029 74.240005 415.52002 102.779999 453.400024 C 205.350006 589.549988 386.450012 724.109985 474.75 768.549988 C 494.640015 778.559998 509.809998 784 518.330017 783.849976 C 521.409973 782.919983 524.48999 781.960022 527.530029 780.969971 C 563.400024 768.840027 582.289978 758.280029 609.840027 742.859985 C 612.530029 741.219971 615.340027 739.440002 618.22998 737.549988 C 624.140015 733.619995 630.320007 729.22998 635.780029 725.450012 C 636.650024 724.820007 637.51001 724.190002 638.369995 723.559998 C 637.52002 723.789978 636.48999 724.159973 635.659973 724.200012 Z"/>
        <path id="path10" fill="#ef5a22" stroke="none" d="M 386.190002 800.929993 C 382.400024 800.140015 377.710022 798.590027 372.219971 796.309998 C 370.369995 795.539978 368.429993 794.690002 366.410004 793.76001 C 362.369995 791.900024 357.980011 789.72998 353.299988 787.25 C 350.959991 786.01001 348.540009 784.700012 346.049988 783.320007 C 344.040009 782.200012 341.950012 781 339.850006 779.789978 C 338.679993 779.109985 337.48999 778.419983 336.299988 777.719971 C 334.940002 776.919983 333.570007 776.099976 332.179993 775.27002 C 331.029999 774.580017 329.869995 773.890015 328.700012 773.169983 C 327.079987 772.179993 325.429993 771.159973 323.769989 770.119995 C 322.779999 769.5 321.799988 768.900024 320.790009 768.27002 C 318.140015 766.599976 315.440002 764.880005 312.700012 763.099976 C 312.649994 763.070007 312.600006 763.030029 312.540009 763 C 267.140015 733.530029 209.76001 689.369995 156.589996 638.299988 C 114.050003 597.440002 74.229996 552.169983 45.440002 506.469971 C 21 467.679993 4.520004 428.590027 1.080002 391.640015 C 0.460007 393.440002 0.130005 395.349976 0.119995 397.25 C 0.070007 403.710022 0.160004 409.679993 0.360001 415.320007 C 0.360001 415.469971 0.369995 415.609985 0.380005 415.76001 C 0.669998 421.940002 1.080002 428.559998 1.630005 435.22998 C 2.949997 449.409973 5.029999 462.419983 7.559998 477.609985 C 8.220001 480.780029 8.919998 484.059998 9.660004 487.340027 C 13.509995 502.609985 18.679993 520.960022 23.130005 535.030029 C 23.149994 535.080017 23.169998 535.140015 23.190002 535.200012 C 34.580002 563.400024 51.919998 591.299988 72.429993 617.669983 C 72.429993 617.669983 72.429993 617.669983 72.429993 617.669983 C 133.369995 696 222.309998 760.669983 266.299988 778.51001 L 275.809998 781.76001 C 280.149994 783.179993 285.940002 784.880005 290.410004 786.219971 C 291.380005 786.47998 292.420013 786.77002 293.589996 787.070007 C 295.920013 787.690002 298.720001 788.409973 302.290009 789.340027 C 304.079987 789.799988 306.059998 790.309998 308.269989 790.880005 C 309.350006 791.109985 310.470001 791.349976 311.619995 791.590027 C 315.070007 792.309998 318.769989 793.049988 322.549988 793.789978 C 325.070007 794.280029 327.630005 794.76001 330.160004 795.22998 C 332.700012 795.700012 335.209991 796.140015 337.649994 796.559998 C 339.390015 796.830017 341.290009 797.119995 343.399994 797.440002 C 341.290009 797.119995 339.390015 796.830017 337.649994 796.559998 C 340.529999 797.049988 343.309998 797.51001 345.899994 797.900024 C 354.01001 799.130005 364.920013 800.190002 373.109985 800.690002 C 378.52002 801.02002 383.900024 801.299988 389.5 801.460022 C 389.599976 801.460022 389.700012 801.460022 389.799988 801.460022 C 388.710022 801.380005 387.48999 801.190002 386.169983 800.919983 Z"/>
    </g>
</svg>
